@startuml

abstract AbstractProductA
abstract AbstractProductB
abstract AbstractCreator

class ProductA1
class ProductA2

class ProductB1
class ProductB2

class Creator1
class Creator2


AbstractProductA <|-- ProductA1
AbstractProductA <|-- ProductA2

AbstractProductB <|-- ProductB1
AbstractProductB <|-- ProductB2

AbstractCreator <|-- Creator1

AbstractCreator <|-- Creator2
ProductA1 <.. Creator1
ProductB1 <.. Creator1

ProductA2 <.. Creator2
ProductB2 <.. Creator2

@enduml